<svg xmlns="http://www.w3.org/2000/svg" viewBox="0 0 20 25">
    <path fill="#FFAE00" d="M18.9 9.5c.7-1 1.1-2.2 1.1-3.5 0-1.6-.6-3.1-1.8-4.2C17.1.6 15.6 0 14 0c-1.3 0-2.5.4-3.5 1.1l-.1-.1C10 .6 9.4.6 9 1c-.4.4-.4 1 0 1.4l.1.1C8.4 3.5 8 4.7 8 6v.5L.7 14.8c-1.1 1.2-1 3.1.2 4.3.6.6 1.5.9 2.3.9.7 0 1.5-.2 2.1-.8l8.3-7.3h.5c1.3 0 2.5-.4 3.5-1.1l.1.1c.2.2.5.3.7.3.3 0 .5-.1.7-.3.2-.3.2-1-.2-1.4zM14 2c1.1 0 2.1.4 2.8 1.2.8.7 1.2 1.7 1.2 2.8 0 .7-.2 1.4-.6 2L12 2.6c.6-.4 1.3-.6 2-.6zM3.9 17.7c-.5.4-1.2.4-1.6-.1-.4-.4-.5-1.1-.1-1.6l6.4-7.3c.3.5.6 1 1.1 1.5.4.4.9.8 1.5 1.1l-7.3 6.4zm7.3-8.9c-.6-.6-1-1.3-1.1-2.1-.1-.2-.1-.5-.1-.7 0-.7.2-1.4.6-2L16 9.4c-1.5.9-3.6.7-4.8-.6z"/>
</svg>
