<svg xmlns="http://www.w3.org/2000/svg" viewBox="0 0 20 25">
    <path fill="#FFAE00" d="M7.8.3l.4 2c1.2-.3 2.4-.3 3.6 0l.4-2c-1.4-.4-3-.4-4.4 0zM1.5 4.7l1.7 1.1c.6-1 1.5-1.9 2.5-2.5l-1-1.8c-1.3.8-2.4 1.9-3.2 3.2zM2.2 8.2l-2-.4c-.3 1.5-.3 3 0 4.4l2-.4c-.3-1.2-.3-2.4 0-3.6zM3.2 14.3l-1.7 1.1c.8 1.3 1.9 2.3 3.1 3.1l1.1-1.7c-1-.7-1.8-1.5-2.5-2.5zM8.2 17.8l-.4 2c.7.1 1.5.2 2.2.2.7 0 1.5-.1 2.2-.2l-.4-2c-1.2.3-2.4.3-3.6 0zM14.3 16.8l1.1 1.7c1.3-.8 2.3-1.9 3.1-3.1l-1.7-1.1c-.7 1-1.5 1.8-2.5 2.5zM19.7 7.8l-2 .4c.3 1.2.3 2.4 0 3.6l2 .4c.4-1.4.4-3 0-4.4zM16.8 5.7l1.7-1.1c-.8-1.3-1.9-2.3-3.1-3.1l-1.1 1.7c1 .7 1.8 1.5 2.5 2.5zM8 7v6l4-3z"/>
</svg>
