<svg xmlns="http://www.w3.org/2000/svg" viewBox="0 0 20 25">
    <g fill="#FFAE00">
        <path d="M17.6 2.2C16.1.9 14.1.3 12.1.5c-3.1.5-5.6 3-6 6l2 .3c.3-2.2 2.1-4 4.3-4.3 1.5-.2 2.9.2 4 1.2s1.7 2.3 1.7 3.8-.6 2.9-1.8 3.8c-1.2 1-2 2.5-2.3 4.1-.1.6-.4 1.1-.9 1.5-1.1.9-2.6.7-3.5-.3L8 17.9c.9 1.1 2.2 1.6 3.5 1.6 1 0 2-.3 2.9-1 .8-.7 1.4-1.6 1.6-2.7.2-1.2.8-2.3 1.6-3 1.6-1.3 2.5-3.3 2.5-5.3-.1-2-1-3.9-2.5-5.3z"/>
        <path d="M15.8 10.3c.8-.7 1.2-1.7 1.2-2.8 0-1.1-.4-2.1-1.2-2.8-.9-.9-2.3-1.3-3.6-1.1l.4 2c.6-.1 1.3.1 1.8.5.4.4.6.9.6 1.4 0 .5-.2 1-.6 1.4l1.4 1.4zM9 13.5h4v-2H9.4l-.6-.7c-.2-.2-.5-.4-.9-.3-.3 0-.6.2-.8.5l-.9 1.8L5 8.2c-.2-.4-.5-.7-.9-.7s-.8.2-1 .5l-1.7 3.4H0v2h2c.4 0 .7-.2.9-.6l.9-1.7 1.3 4.6c.1.4.5.7.9.7h.1c.4 0 .7-.2.9-.5l1.4-2.7c.1.2.4.3.6.3z"/>
    </g>
</svg>
