<svg xmlns="http://www.w3.org/2000/svg" viewBox="0 0 20 25">
    <path fill="#FFAE00" d="M18.8 14h.2c.6 0 1-.4 1-1V1c0-.6-.4-1-1-1H1C.4 0 0 .4 0 1v12c0 .6.4 1 1 1h.2c.4 1.2 1.5 2 2.8 2 1.3 0 2.4-.8 2.8-2h.4c.4 1.2 1.5 2 2.8 2 1.3 0 2.4-.8 2.8-2h.4c.4 1.2 1.5 2 2.8 2 1.3 0 2.4-.8 2.8-2zM18 2v8.8c-.5-.5-1.2-.8-2-.8-1.3 0-2.4.8-2.8 2h-.4c-.4-1.2-1.5-2-2.8-2-1.3 0-2.4.8-2.8 2h-.4c-.4-1.2-1.5-2-2.8-2-.8 0-1.5.3-2 .8V2h16zM4 14c-.6 0-1-.4-1-1s.4-1 1-1 1 .4 1 1-.4 1-1 1zm6 0c-.6 0-1-.4-1-1s.4-1 1-1 1 .4 1 1-.4 1-1 1zm6 0c-.6 0-1-.4-1-1s.4-1 1-1 1 .4 1 1-.4 1-1 1z"/>
    <path fill="#FFAE00" d="M13 17.4c-.7-.8-1.8-1.4-3-1.4s-2.3.5-3 1.4c-.7-.9-1.8-1.4-3-1.4-2.2 0-4 1.8-4 4h2c0-1.1.9-2 2-2s2 .9 2 2h2c0-1.1.9-2 2-2s2 .9 2 2h2c0-1.1.9-2 2-2s2 .9 2 2h2c0-2.2-1.8-4-4-4-1.2 0-2.3.5-3 1.4z"/>
</svg>
