<svg xmlns="http://www.w3.org/2000/svg" viewBox="0 0 20 25">
    <path fill="#FFAE00" d="M4 13h12c2.2 0 4-1.8 4-4 0-1.5-.8-2.8-2-3.5.2-1.2-.3-2.5-1.1-3.3-1.3-1.3-3.3-1.5-4.8-.6C10.9.5 9.5 0 8 0c-.9 0-1.9.2-2.7.7-1.9.9-3.1 2.8-3.3 4.8-1.2.7-2 2-2 3.5 0 2.2 1.8 4 4 4zm-.7-5.9c.5-.1.7-.5.7-1 0-1.5.8-3 2.2-3.7C6.8 2.1 7.4 2 8 2c1.2 0 2.4.6 3.1 1.5.2.2.4.4.7.4.3 0 .6-.1.8-.3.8-.7 2.1-.7 2.8 0 .6.5.7 1.4.5 2.1-.1.3-.1.6 0 .8.1.3.4.5.6.6.9.2 1.5 1 1.5 1.9 0 1.1-.9 2-2 2H4c-1.1 0-2-.9-2-2 0-.8.5-1.6 1.3-1.9zM19 14H1c-.6 0-1 .4-1 1v4c0 .6.4 1 1 1h18c.6 0 1-.4 1-1v-4c0-.6-.4-1-1-1zM8 16v2H6v-2h2zm-6 0h2v2H2v-2zm16 2h-8v-2h8v2z"/>
</svg>
